# Tiled2Unity generated file. Do not modify by hand.
# Wavefront file for 'Player-house-1_mesh_0001.obj'

# Vertices (Count = 140)
v 0 -1 0
v -1 -1 0
v -1 0 0
v 0 0 0
v -1 -1 0
v -2 -1 0
v -2 0 0
v -1 0 0
v -2 -1 0
v -3 -1 0
v -3 0 0
v -2 0 0
v -3 -1 0
v -4 -1 0
v -4 0 0
v -3 0 0
v -4 -1 0
v -5 -1 0
v -5 0 0
v -4 0 0
v -5 -1 0
v -6 -1 0
v -6 0 0
v -5 0 0
v -6 -1 0
v -7 -1 0
v -7 0 0
v -6 0 0
v 0 -2 0
v -1 -2 0
v -1 -1 0
v 0 -1 0
v -1 -2 0
v -2 -2 0
v -2 -1 0
v -1 -1 0
v -2 -2 0
v -3 -2 0
v -3 -1 0
v -2 -1 0
v -3 -2 0
v -4 -2 0
v -4 -1 0
v -3 -1 0
v -4 -2 0
v -5 -2 0
v -5 -1 0
v -4 -1 0
v -5 -2 0
v -6 -2 0
v -6 -1 0
v -5 -1 0
v -6 -2 0
v -7 -2 0
v -7 -1 0
v -6 -1 0
v 0 -3 0
v -1 -3 0
v -1 -2 0
v 0 -2 0
v -1 -3 0
v -2 -3 0
v -2 -2 0
v -1 -2 0
v -2 -3 0
v -3 -3 0
v -3 -2 0
v -2 -2 0
v -3 -3 0
v -4 -3 0
v -4 -2 0
v -3 -2 0
v -4 -3 0
v -5 -3 0
v -5 -2 0
v -4 -2 0
v -5 -3 0
v -6 -3 0
v -6 -2 0
v -5 -2 0
v -6 -3 0
v -7 -3 0
v -7 -2 0
v -6 -2 0
v 0 -4 0
v -1 -4 0
v -1 -3 0
v 0 -3 0
v -1 -4 0
v -2 -4 0
v -2 -3 0
v -1 -3 0
v -2 -4 0
v -3 -4 0
v -3 -3 0
v -2 -3 0
v -3 -4 0
v -4 -4 0
v -4 -3 0
v -3 -3 0
v -4 -4 0
v -5 -4 0
v -5 -3 0
v -4 -3 0
v -5 -4 0
v -6 -4 0
v -6 -3 0
v -5 -3 0
v -6 -4 0
v -7 -4 0
v -7 -3 0
v -6 -3 0
v 0 -5 0
v -1 -5 0
v -1 -4 0
v 0 -4 0
v -1 -5 0
v -2 -5 0
v -2 -4 0
v -1 -4 0
v -2 -5 0
v -3 -5 0
v -3 -4 0
v -2 -4 0
v -3 -5 0
v -4 -5 0
v -4 -4 0
v -3 -4 0
v -4 -5 0
v -5 -5 0
v -5 -4 0
v -4 -4 0
v -5 -5 0
v -6 -5 0
v -6 -4 0
v -5 -4 0
v -6 -5 0
v -7 -5 0
v -7 -4 0
v -6 -4 0

# Texture cooridinates (Count = 48)
vt 0.7418335 0.7452229
vt 0.7755532 0.7452229
vt 0.7755532 0.7961783
vt 0.7418335 0.7961783
vt 0.8092729 0.7452229
vt 0.8092729 0.7961783
vt 0.8429926 0.7452229
vt 0.8429926 0.7961783
vt 0.8767123 0.7452229
vt 0.8767123 0.7961783
vt 0.910432 0.7452229
vt 0.910432 0.7961783
vt 0.9441518 0.7452229
vt 0.9441518 0.7961783
vt 0.9778714 0.7452229
vt 0.9778714 0.7961783
vt 0.7418335 0.6942675
vt 0.7755532 0.6942675
vt 0.8092729 0.6942675
vt 0.8429926 0.6942675
vt 0.8767123 0.6942675
vt 0.910432 0.6942675
vt 0.9441518 0.6942675
vt 0.9778714 0.6942675
vt 0.7418335 0.6433121
vt 0.7755532 0.6433121
vt 0.8092729 0.6433121
vt 0.8429926 0.6433121
vt 0.8767123 0.6433121
vt 0.910432 0.6433121
vt 0.9441518 0.6433121
vt 0.9778714 0.6433121
vt 0.7418335 0.5923567
vt 0.7755532 0.5923567
vt 0.8092729 0.5923567
vt 0.8429926 0.5923567
vt 0.8767123 0.5923567
vt 0.910432 0.5923567
vt 0.9441518 0.5923567
vt 0.9778714 0.5923567
vt 0.7418335 0.5414013
vt 0.7755532 0.5414013
vt 0.8092729 0.5414013
vt 0.8429926 0.5414013
vt 0.8767123 0.5414013
vt 0.910432 0.5414013
vt 0.9441518 0.5414013
vt 0.9778714 0.5414013

# Normal
vn 0 0 -1

# Mesh description
g Player-house-1_mesh_0001

# Faces
f 1/1/1 2/2/1 3/3/1 4/4/1
f 5/2/1 6/5/1 7/6/1 8/3/1
f 9/5/1 10/7/1 11/8/1 12/6/1
f 13/7/1 14/9/1 15/10/1 16/8/1
f 17/9/1 18/11/1 19/12/1 20/10/1
f 21/11/1 22/13/1 23/14/1 24/12/1
f 25/13/1 26/15/1 27/16/1 28/14/1
f 29/17/1 30/18/1 31/2/1 32/1/1
f 33/18/1 34/19/1 35/5/1 36/2/1
f 37/19/1 38/20/1 39/7/1 40/5/1
f 41/20/1 42/21/1 43/9/1 44/7/1
f 45/21/1 46/22/1 47/11/1 48/9/1
f 49/22/1 50/23/1 51/13/1 52/11/1
f 53/23/1 54/24/1 55/15/1 56/13/1
f 57/25/1 58/26/1 59/18/1 60/17/1
f 61/26/1 62/27/1 63/19/1 64/18/1
f 65/27/1 66/28/1 67/20/1 68/19/1
f 69/28/1 70/29/1 71/21/1 72/20/1
f 73/29/1 74/30/1 75/22/1 76/21/1
f 77/30/1 78/31/1 79/23/1 80/22/1
f 81/31/1 82/32/1 83/24/1 84/23/1
f 85/33/1 86/34/1 87/26/1 88/25/1
f 89/34/1 90/35/1 91/27/1 92/26/1
f 93/35/1 94/36/1 95/28/1 96/27/1
f 97/36/1 98/37/1 99/29/1 100/28/1
f 101/37/1 102/38/1 103/30/1 104/29/1
f 105/38/1 106/39/1 107/31/1 108/30/1
f 109/39/1 110/40/1 111/32/1 112/31/1
f 113/41/1 114/42/1 115/34/1 116/33/1
f 117/42/1 118/43/1 119/35/1 120/34/1
f 121/43/1 122/44/1 123/36/1 124/35/1
f 125/44/1 126/45/1 127/37/1 128/36/1
f 129/45/1 130/46/1 131/38/1 132/37/1
f 133/46/1 134/47/1 135/39/1 136/38/1
f 137/47/1 138/48/1 139/40/1 140/39/1

