# Tiled2Unity generated file. Do not modify by hand.
# Wavefront file for 'City-1_mesh_0001.obj'

# Vertices (Count = 1024)
v 0 -1 0
v -1 -1 0
v -1 0 0
v 0 0 0
v -1 -1 0
v -2 -1 0
v -2 0 0
v -1 0 0
v -2 -1 0
v -3 -1 0
v -3 0 0
v -2 0 0
v -3 -1 0
v -4 -1 0
v -4 0 0
v -3 0 0
v -4 -1 0
v -5 -1 0
v -5 0 0
v -4 0 0
v -5 -1 0
v -6 -1 0
v -6 0 0
v -5 0 0
v -6 -1 0
v -7 -1 0
v -7 0 0
v -6 0 0
v -7 -1 0
v -8 -1 0
v -8 0 0
v -7 0 0
v -8 -1 0
v -9 -1 0
v -9 0 0
v -8 0 0
v -9 -1 0
v -10 -1 0
v -10 0 0
v -9 0 0
v -10 -1 0
v -11 -1 0
v -11 0 0
v -10 0 0
v -11 -1 0
v -12 -1 0
v -12 0 0
v -11 0 0
v -12 -1 0
v -13 -1 0
v -13 0 0
v -12 0 0
v -13 -1 0
v -14 -1 0
v -14 0 0
v -13 0 0
v -14 -1 0
v -15 -1 0
v -15 0 0
v -14 0 0
v -15 -1 0
v -16 -1 0
v -16 0 0
v -15 0 0
v 0 -2 0
v -1 -2 0
v -1 -1 0
v 0 -1 0
v -1 -2 0
v -2 -2 0
v -2 -1 0
v -1 -1 0
v -2 -2 0
v -3 -2 0
v -3 -1 0
v -2 -1 0
v -3 -2 0
v -4 -2 0
v -4 -1 0
v -3 -1 0
v -4 -2 0
v -5 -2 0
v -5 -1 0
v -4 -1 0
v -5 -2 0
v -6 -2 0
v -6 -1 0
v -5 -1 0
v -6 -2 0
v -7 -2 0
v -7 -1 0
v -6 -1 0
v -7 -2 0
v -8 -2 0
v -8 -1 0
v -7 -1 0
v -8 -2 0
v -9 -2 0
v -9 -1 0
v -8 -1 0
v -9 -2 0
v -10 -2 0
v -10 -1 0
v -9 -1 0
v -10 -2 0
v -11 -2 0
v -11 -1 0
v -10 -1 0
v -11 -2 0
v -12 -2 0
v -12 -1 0
v -11 -1 0
v -12 -2 0
v -13 -2 0
v -13 -1 0
v -12 -1 0
v -13 -2 0
v -14 -2 0
v -14 -1 0
v -13 -1 0
v -14 -2 0
v -15 -2 0
v -15 -1 0
v -14 -1 0
v -15 -2 0
v -16 -2 0
v -16 -1 0
v -15 -1 0
v 0 -3 0
v -1 -3 0
v -1 -2 0
v 0 -2 0
v -1 -3 0
v -2 -3 0
v -2 -2 0
v -1 -2 0
v -2 -3 0
v -3 -3 0
v -3 -2 0
v -2 -2 0
v -3 -3 0
v -4 -3 0
v -4 -2 0
v -3 -2 0
v -4 -3 0
v -5 -3 0
v -5 -2 0
v -4 -2 0
v -5 -3 0
v -6 -3 0
v -6 -2 0
v -5 -2 0
v -6 -3 0
v -7 -3 0
v -7 -2 0
v -6 -2 0
v -7 -3 0
v -8 -3 0
v -8 -2 0
v -7 -2 0
v -8 -3 0
v -9 -3 0
v -9 -2 0
v -8 -2 0
v -9 -3 0
v -10 -3 0
v -10 -2 0
v -9 -2 0
v -10 -3 0
v -11 -3 0
v -11 -2 0
v -10 -2 0
v -11 -3 0
v -12 -3 0
v -12 -2 0
v -11 -2 0
v -12 -3 0
v -13 -3 0
v -13 -2 0
v -12 -2 0
v -13 -3 0
v -14 -3 0
v -14 -2 0
v -13 -2 0
v -14 -3 0
v -15 -3 0
v -15 -2 0
v -14 -2 0
v -15 -3 0
v -16 -3 0
v -16 -2 0
v -15 -2 0
v 0 -4 0
v -1 -4 0
v -1 -3 0
v 0 -3 0
v -1 -4 0
v -2 -4 0
v -2 -3 0
v -1 -3 0
v -2 -4 0
v -3 -4 0
v -3 -3 0
v -2 -3 0
v -3 -4 0
v -4 -4 0
v -4 -3 0
v -3 -3 0
v -4 -4 0
v -5 -4 0
v -5 -3 0
v -4 -3 0
v -5 -4 0
v -6 -4 0
v -6 -3 0
v -5 -3 0
v -6 -4 0
v -7 -4 0
v -7 -3 0
v -6 -3 0
v -7 -4 0
v -8 -4 0
v -8 -3 0
v -7 -3 0
v -8 -4 0
v -9 -4 0
v -9 -3 0
v -8 -3 0
v -9 -4 0
v -10 -4 0
v -10 -3 0
v -9 -3 0
v -10 -4 0
v -11 -4 0
v -11 -3 0
v -10 -3 0
v -11 -4 0
v -12 -4 0
v -12 -3 0
v -11 -3 0
v -12 -4 0
v -13 -4 0
v -13 -3 0
v -12 -3 0
v -13 -4 0
v -14 -4 0
v -14 -3 0
v -13 -3 0
v -14 -4 0
v -15 -4 0
v -15 -3 0
v -14 -3 0
v -15 -4 0
v -16 -4 0
v -16 -3 0
v -15 -3 0
v 0 -5 0
v -1 -5 0
v -1 -4 0
v 0 -4 0
v -1 -5 0
v -2 -5 0
v -2 -4 0
v -1 -4 0
v -2 -5 0
v -3 -5 0
v -3 -4 0
v -2 -4 0
v -3 -5 0
v -4 -5 0
v -4 -4 0
v -3 -4 0
v -4 -5 0
v -5 -5 0
v -5 -4 0
v -4 -4 0
v -5 -5 0
v -6 -5 0
v -6 -4 0
v -5 -4 0
v -6 -5 0
v -7 -5 0
v -7 -4 0
v -6 -4 0
v -7 -5 0
v -8 -5 0
v -8 -4 0
v -7 -4 0
v -8 -5 0
v -9 -5 0
v -9 -4 0
v -8 -4 0
v -9 -5 0
v -10 -5 0
v -10 -4 0
v -9 -4 0
v -10 -5 0
v -11 -5 0
v -11 -4 0
v -10 -4 0
v -11 -5 0
v -12 -5 0
v -12 -4 0
v -11 -4 0
v -12 -5 0
v -13 -5 0
v -13 -4 0
v -12 -4 0
v -13 -5 0
v -14 -5 0
v -14 -4 0
v -13 -4 0
v -14 -5 0
v -15 -5 0
v -15 -4 0
v -14 -4 0
v -15 -5 0
v -16 -5 0
v -16 -4 0
v -15 -4 0
v 0 -6 0
v -1 -6 0
v -1 -5 0
v 0 -5 0
v -1 -6 0
v -2 -6 0
v -2 -5 0
v -1 -5 0
v -2 -6 0
v -3 -6 0
v -3 -5 0
v -2 -5 0
v -3 -6 0
v -4 -6 0
v -4 -5 0
v -3 -5 0
v -4 -6 0
v -5 -6 0
v -5 -5 0
v -4 -5 0
v -5 -6 0
v -6 -6 0
v -6 -5 0
v -5 -5 0
v -6 -6 0
v -7 -6 0
v -7 -5 0
v -6 -5 0
v -7 -6 0
v -8 -6 0
v -8 -5 0
v -7 -5 0
v -8 -6 0
v -9 -6 0
v -9 -5 0
v -8 -5 0
v -9 -6 0
v -10 -6 0
v -10 -5 0
v -9 -5 0
v -10 -6 0
v -11 -6 0
v -11 -5 0
v -10 -5 0
v -11 -6 0
v -12 -6 0
v -12 -5 0
v -11 -5 0
v -12 -6 0
v -13 -6 0
v -13 -5 0
v -12 -5 0
v -13 -6 0
v -14 -6 0
v -14 -5 0
v -13 -5 0
v -14 -6 0
v -15 -6 0
v -15 -5 0
v -14 -5 0
v -15 -6 0
v -16 -6 0
v -16 -5 0
v -15 -5 0
v 0 -7 0
v -1 -7 0
v -1 -6 0
v 0 -6 0
v -1 -7 0
v -2 -7 0
v -2 -6 0
v -1 -6 0
v -2 -7 0
v -3 -7 0
v -3 -6 0
v -2 -6 0
v -3 -7 0
v -4 -7 0
v -4 -6 0
v -3 -6 0
v -4 -7 0
v -5 -7 0
v -5 -6 0
v -4 -6 0
v -5 -7 0
v -6 -7 0
v -6 -6 0
v -5 -6 0
v -6 -7 0
v -7 -7 0
v -7 -6 0
v -6 -6 0
v -7 -7 0
v -8 -7 0
v -8 -6 0
v -7 -6 0
v -8 -7 0
v -9 -7 0
v -9 -6 0
v -8 -6 0
v -9 -7 0
v -10 -7 0
v -10 -6 0
v -9 -6 0
v -10 -7 0
v -11 -7 0
v -11 -6 0
v -10 -6 0
v -11 -7 0
v -12 -7 0
v -12 -6 0
v -11 -6 0
v -12 -7 0
v -13 -7 0
v -13 -6 0
v -12 -6 0
v -13 -7 0
v -14 -7 0
v -14 -6 0
v -13 -6 0
v -14 -7 0
v -15 -7 0
v -15 -6 0
v -14 -6 0
v -15 -7 0
v -16 -7 0
v -16 -6 0
v -15 -6 0
v 0 -8 0
v -1 -8 0
v -1 -7 0
v 0 -7 0
v -1 -8 0
v -2 -8 0
v -2 -7 0
v -1 -7 0
v -2 -8 0
v -3 -8 0
v -3 -7 0
v -2 -7 0
v -3 -8 0
v -4 -8 0
v -4 -7 0
v -3 -7 0
v -4 -8 0
v -5 -8 0
v -5 -7 0
v -4 -7 0
v -5 -8 0
v -6 -8 0
v -6 -7 0
v -5 -7 0
v -6 -8 0
v -7 -8 0
v -7 -7 0
v -6 -7 0
v -7 -8 0
v -8 -8 0
v -8 -7 0
v -7 -7 0
v -8 -8 0
v -9 -8 0
v -9 -7 0
v -8 -7 0
v -9 -8 0
v -10 -8 0
v -10 -7 0
v -9 -7 0
v -10 -8 0
v -11 -8 0
v -11 -7 0
v -10 -7 0
v -11 -8 0
v -12 -8 0
v -12 -7 0
v -11 -7 0
v -12 -8 0
v -13 -8 0
v -13 -7 0
v -12 -7 0
v -13 -8 0
v -14 -8 0
v -14 -7 0
v -13 -7 0
v -14 -8 0
v -15 -8 0
v -15 -7 0
v -14 -7 0
v -15 -8 0
v -16 -8 0
v -16 -7 0
v -15 -7 0
v 0 -9 0
v -1 -9 0
v -1 -8 0
v 0 -8 0
v -1 -9 0
v -2 -9 0
v -2 -8 0
v -1 -8 0
v -2 -9 0
v -3 -9 0
v -3 -8 0
v -2 -8 0
v -3 -9 0
v -4 -9 0
v -4 -8 0
v -3 -8 0
v -4 -9 0
v -5 -9 0
v -5 -8 0
v -4 -8 0
v -5 -9 0
v -6 -9 0
v -6 -8 0
v -5 -8 0
v -6 -9 0
v -7 -9 0
v -7 -8 0
v -6 -8 0
v -7 -9 0
v -8 -9 0
v -8 -8 0
v -7 -8 0
v -8 -9 0
v -9 -9 0
v -9 -8 0
v -8 -8 0
v -9 -9 0
v -10 -9 0
v -10 -8 0
v -9 -8 0
v -10 -9 0
v -11 -9 0
v -11 -8 0
v -10 -8 0
v -11 -9 0
v -12 -9 0
v -12 -8 0
v -11 -8 0
v -12 -9 0
v -13 -9 0
v -13 -8 0
v -12 -8 0
v -13 -9 0
v -14 -9 0
v -14 -8 0
v -13 -8 0
v -14 -9 0
v -15 -9 0
v -15 -8 0
v -14 -8 0
v -15 -9 0
v -16 -9 0
v -16 -8 0
v -15 -8 0
v 0 -10 0
v -1 -10 0
v -1 -9 0
v 0 -9 0
v -1 -10 0
v -2 -10 0
v -2 -9 0
v -1 -9 0
v -2 -10 0
v -3 -10 0
v -3 -9 0
v -2 -9 0
v -3 -10 0
v -4 -10 0
v -4 -9 0
v -3 -9 0
v -4 -10 0
v -5 -10 0
v -5 -9 0
v -4 -9 0
v -5 -10 0
v -6 -10 0
v -6 -9 0
v -5 -9 0
v -6 -10 0
v -7 -10 0
v -7 -9 0
v -6 -9 0
v -7 -10 0
v -8 -10 0
v -8 -9 0
v -7 -9 0
v -8 -10 0
v -9 -10 0
v -9 -9 0
v -8 -9 0
v -9 -10 0
v -10 -10 0
v -10 -9 0
v -9 -9 0
v -10 -10 0
v -11 -10 0
v -11 -9 0
v -10 -9 0
v -11 -10 0
v -12 -10 0
v -12 -9 0
v -11 -9 0
v -12 -10 0
v -13 -10 0
v -13 -9 0
v -12 -9 0
v -13 -10 0
v -14 -10 0
v -14 -9 0
v -13 -9 0
v -14 -10 0
v -15 -10 0
v -15 -9 0
v -14 -9 0
v -15 -10 0
v -16 -10 0
v -16 -9 0
v -15 -9 0
v 0 -11 0
v -1 -11 0
v -1 -10 0
v 0 -10 0
v -1 -11 0
v -2 -11 0
v -2 -10 0
v -1 -10 0
v -2 -11 0
v -3 -11 0
v -3 -10 0
v -2 -10 0
v -3 -11 0
v -4 -11 0
v -4 -10 0
v -3 -10 0
v -4 -11 0
v -5 -11 0
v -5 -10 0
v -4 -10 0
v -5 -11 0
v -6 -11 0
v -6 -10 0
v -5 -10 0
v -6 -11 0
v -7 -11 0
v -7 -10 0
v -6 -10 0
v -7 -11 0
v -8 -11 0
v -8 -10 0
v -7 -10 0
v -8 -11 0
v -9 -11 0
v -9 -10 0
v -8 -10 0
v -9 -11 0
v -10 -11 0
v -10 -10 0
v -9 -10 0
v -10 -11 0
v -11 -11 0
v -11 -10 0
v -10 -10 0
v -11 -11 0
v -12 -11 0
v -12 -10 0
v -11 -10 0
v -12 -11 0
v -13 -11 0
v -13 -10 0
v -12 -10 0
v -13 -11 0
v -14 -11 0
v -14 -10 0
v -13 -10 0
v -14 -11 0
v -15 -11 0
v -15 -10 0
v -14 -10 0
v -15 -11 0
v -16 -11 0
v -16 -10 0
v -15 -10 0
v 0 -12 0
v -1 -12 0
v -1 -11 0
v 0 -11 0
v -1 -12 0
v -2 -12 0
v -2 -11 0
v -1 -11 0
v -2 -12 0
v -3 -12 0
v -3 -11 0
v -2 -11 0
v -3 -12 0
v -4 -12 0
v -4 -11 0
v -3 -11 0
v -4 -12 0
v -5 -12 0
v -5 -11 0
v -4 -11 0
v -5 -12 0
v -6 -12 0
v -6 -11 0
v -5 -11 0
v -6 -12 0
v -7 -12 0
v -7 -11 0
v -6 -11 0
v -7 -12 0
v -8 -12 0
v -8 -11 0
v -7 -11 0
v -8 -12 0
v -9 -12 0
v -9 -11 0
v -8 -11 0
v -9 -12 0
v -10 -12 0
v -10 -11 0
v -9 -11 0
v -10 -12 0
v -11 -12 0
v -11 -11 0
v -10 -11 0
v -11 -12 0
v -12 -12 0
v -12 -11 0
v -11 -11 0
v -12 -12 0
v -13 -12 0
v -13 -11 0
v -12 -11 0
v -13 -12 0
v -14 -12 0
v -14 -11 0
v -13 -11 0
v -14 -12 0
v -15 -12 0
v -15 -11 0
v -14 -11 0
v -15 -12 0
v -16 -12 0
v -16 -11 0
v -15 -11 0
v 0 -13 0
v -1 -13 0
v -1 -12 0
v 0 -12 0
v -1 -13 0
v -2 -13 0
v -2 -12 0
v -1 -12 0
v -2 -13 0
v -3 -13 0
v -3 -12 0
v -2 -12 0
v -3 -13 0
v -4 -13 0
v -4 -12 0
v -3 -12 0
v -4 -13 0
v -5 -13 0
v -5 -12 0
v -4 -12 0
v -5 -13 0
v -6 -13 0
v -6 -12 0
v -5 -12 0
v -6 -13 0
v -7 -13 0
v -7 -12 0
v -6 -12 0
v -7 -13 0
v -8 -13 0
v -8 -12 0
v -7 -12 0
v -8 -13 0
v -9 -13 0
v -9 -12 0
v -8 -12 0
v -9 -13 0
v -10 -13 0
v -10 -12 0
v -9 -12 0
v -10 -13 0
v -11 -13 0
v -11 -12 0
v -10 -12 0
v -11 -13 0
v -12 -13 0
v -12 -12 0
v -11 -12 0
v -12 -13 0
v -13 -13 0
v -13 -12 0
v -12 -12 0
v -13 -13 0
v -14 -13 0
v -14 -12 0
v -13 -12 0
v -14 -13 0
v -15 -13 0
v -15 -12 0
v -14 -12 0
v -15 -13 0
v -16 -13 0
v -16 -12 0
v -15 -12 0
v 0 -14 0
v -1 -14 0
v -1 -13 0
v 0 -13 0
v -1 -14 0
v -2 -14 0
v -2 -13 0
v -1 -13 0
v -2 -14 0
v -3 -14 0
v -3 -13 0
v -2 -13 0
v -3 -14 0
v -4 -14 0
v -4 -13 0
v -3 -13 0
v -4 -14 0
v -5 -14 0
v -5 -13 0
v -4 -13 0
v -5 -14 0
v -6 -14 0
v -6 -13 0
v -5 -13 0
v -6 -14 0
v -7 -14 0
v -7 -13 0
v -6 -13 0
v -7 -14 0
v -8 -14 0
v -8 -13 0
v -7 -13 0
v -8 -14 0
v -9 -14 0
v -9 -13 0
v -8 -13 0
v -9 -14 0
v -10 -14 0
v -10 -13 0
v -9 -13 0
v -10 -14 0
v -11 -14 0
v -11 -13 0
v -10 -13 0
v -11 -14 0
v -12 -14 0
v -12 -13 0
v -11 -13 0
v -12 -14 0
v -13 -14 0
v -13 -13 0
v -12 -13 0
v -13 -14 0
v -14 -14 0
v -14 -13 0
v -13 -13 0
v -14 -14 0
v -15 -14 0
v -15 -13 0
v -14 -13 0
v -15 -14 0
v -16 -14 0
v -16 -13 0
v -15 -13 0
v 0 -15 0
v -1 -15 0
v -1 -14 0
v 0 -14 0
v -1 -15 0
v -2 -15 0
v -2 -14 0
v -1 -14 0
v -2 -15 0
v -3 -15 0
v -3 -14 0
v -2 -14 0
v -3 -15 0
v -4 -15 0
v -4 -14 0
v -3 -14 0
v -4 -15 0
v -5 -15 0
v -5 -14 0
v -4 -14 0
v -5 -15 0
v -6 -15 0
v -6 -14 0
v -5 -14 0
v -6 -15 0
v -7 -15 0
v -7 -14 0
v -6 -14 0
v -7 -15 0
v -8 -15 0
v -8 -14 0
v -7 -14 0
v -8 -15 0
v -9 -15 0
v -9 -14 0
v -8 -14 0
v -9 -15 0
v -10 -15 0
v -10 -14 0
v -9 -14 0
v -10 -15 0
v -11 -15 0
v -11 -14 0
v -10 -14 0
v -11 -15 0
v -12 -15 0
v -12 -14 0
v -11 -14 0
v -12 -15 0
v -13 -15 0
v -13 -14 0
v -12 -14 0
v -13 -15 0
v -14 -15 0
v -14 -14 0
v -13 -14 0
v -14 -15 0
v -15 -15 0
v -15 -14 0
v -14 -14 0
v -15 -15 0
v -16 -15 0
v -16 -14 0
v -15 -14 0
v 0 -16 0
v -1 -16 0
v -1 -15 0
v 0 -15 0
v -1 -16 0
v -2 -16 0
v -2 -15 0
v -1 -15 0
v -2 -16 0
v -3 -16 0
v -3 -15 0
v -2 -15 0
v -3 -16 0
v -4 -16 0
v -4 -15 0
v -3 -15 0
v -4 -16 0
v -5 -16 0
v -5 -15 0
v -4 -15 0
v -5 -16 0
v -6 -16 0
v -6 -15 0
v -5 -15 0
v -6 -16 0
v -7 -16 0
v -7 -15 0
v -6 -15 0
v -7 -16 0
v -8 -16 0
v -8 -15 0
v -7 -15 0
v -8 -16 0
v -9 -16 0
v -9 -15 0
v -8 -15 0
v -9 -16 0
v -10 -16 0
v -10 -15 0
v -9 -15 0
v -10 -16 0
v -11 -16 0
v -11 -15 0
v -10 -15 0
v -11 -16 0
v -12 -16 0
v -12 -15 0
v -11 -15 0
v -12 -16 0
v -13 -16 0
v -13 -15 0
v -12 -15 0
v -13 -16 0
v -14 -16 0
v -14 -15 0
v -13 -15 0
v -14 -16 0
v -15 -16 0
v -15 -15 0
v -14 -15 0
v -15 -16 0
v -16 -16 0
v -16 -15 0
v -15 -15 0

# Texture cooridinates (Count = 144)
vt 0 0.8980892
vt 0.0337197 0.8980892
vt 0.0337197 0.9490446
vt 0 0.9490446
vt 0.06743941 0.8980892
vt 0.06743941 0.9490446
vt 0.1011591 0.8980892
vt 0.1011591 0.9490446
vt 0.1348788 0.8980892
vt 0.1348788 0.9490446
vt 0.1685985 0.8980892
vt 0.1685985 0.9490446
vt 0.2023182 0.8980892
vt 0.2023182 0.9490446
vt 0.2360379 0.8980892
vt 0.2360379 0.9490446
vt 0 0.8471338
vt 0.0337197 0.8471338
vt 0.337197 0.8471338
vt 0.3709168 0.8471338
vt 0.3709168 0.8980892
vt 0.337197 0.8980892
vt 0.1348788 0.8471338
vt 0.1685985 0.8471338
vt 0.2023182 0.8471338
vt 0.2023182 0.7961783
vt 0.2360379 0.7961783
vt 0.2360379 0.8471338
vt 0.3709168 0.5923567
vt 0.4046365 0.5923567
vt 0.4046365 0.6433121
vt 0.3709168 0.6433121
vt 0 0.7961783
vt 0.0337197 0.7961783
vt 0.337197 0.7961783
vt 0.3709168 0.7961783
vt 0.3709168 0.5414013
vt 0.4046365 0.5414013
vt 0 0.7452229
vt 0.0337197 0.7452229
vt 0.2360379 0.4904459
vt 0.2697576 0.4904459
vt 0.2697576 0.5414013
vt 0.2360379 0.5414013
vt 0 0.6942675
vt 0.0337197 0.6942675
vt 0.06743941 0.7961783
vt 0.1011591 0.7961783
vt 0.1011591 0.8471338
vt 0.06743941 0.8471338
vt 0.1348788 0.7961783
vt 0.1685985 0.7961783
vt 0.2023182 0.7452229
vt 0.2360379 0.7452229
vt 0.2697576 0.7961783
vt 0.2697576 0.8471338
vt 0.3034773 0.7961783
vt 0.3034773 0.8471338
vt 0 0.6433121
vt 0.0337197 0.6433121
vt 0.06743941 0.7452229
vt 0.1011591 0.7452229
vt 0.1348788 0.7452229
vt 0.1685985 0.7452229
vt 0.2697576 0.7452229
vt 0.3034773 0.7452229
vt 0.337197 0.7452229
vt 0 0.5923567
vt 0.0337197 0.5923567
vt 0.06743941 0.6942675
vt 0.1011591 0.6942675
vt 0.1348788 0.6942675
vt 0.1685985 0.6942675
vt 0.2023182 0.6942675
vt 0.2360379 0.6942675
vt 0.2697576 0.6942675
vt 0.3034773 0.6942675
vt 0.337197 0.6942675
vt 0 0.5414013
vt 0.0337197 0.5414013
vt 0.3709168 0.4904459
vt 0.4046365 0.4904459
vt 0.3709168 0.4394904
vt 0.4046365 0.4394904
vt 0.06743941 0.5923567
vt 0.1011591 0.5923567
vt 0.1011591 0.6433121
vt 0.06743941 0.6433121
vt 0.1348788 0.5923567
vt 0.1348788 0.6433121
vt 0.1685985 0.5923567
vt 0.1685985 0.6433121
vt 0.2023182 0.5923567
vt 0.2023182 0.6433121
vt 0.06743941 0.5414013
vt 0.1011591 0.5414013
vt 0.1348788 0.5414013
vt 0.1685985 0.5414013
vt 0.2023182 0.5414013
vt 0 0.4904459
vt 0.0337197 0.4904459
vt 0.337197 0.4904459
vt 0.337197 0.5414013
vt 0.06743941 0.4904459
vt 0.1011591 0.4904459
vt 0.1348788 0.4904459
vt 0.1685985 0.4904459
vt 0.2023182 0.4904459
vt 0.337197 0.4394904
vt 0.1348788 0.4394904
vt 0.1685985 0.4394904
vt 0.2023182 0.4394904
vt 0 0.4394904
vt 0.0337197 0.4394904
vt 0 0.388535
vt 0.0337197 0.388535
vt 0.06743941 0.388535
vt 0.06743941 0.4394904
vt 0.1348788 0.388535
vt 0.1685985 0.388535
vt 0.2023182 0.388535
vt 0.2360379 0.388535
vt 0.2360379 0.4394904
vt 0.2697576 0.388535
vt 0.2697576 0.4394904
vt 0.1011591 0.388535
vt 0.1011591 0.4394904
vt 0.337197 0.388535
vt 0.3709168 0.388535
vt 0 0.3375796
vt 0.0337197 0.3375796
vt 0.06743941 0.3375796
vt 0.1011591 0.3375796
vt 0.1348788 0.3375796
vt 0.1685985 0.3375796
vt 0.2023182 0.3375796
vt 0.2360379 0.3375796
vt 0.2697576 0.3375796
vt 0.3034773 0.3375796
vt 0.3034773 0.388535
vt 0.337197 0.3375796
vt 0.3709168 0.3375796
vt 0.4046365 0.3375796
vt 0.4046365 0.388535

# Normal
vn 0 0 -1

# Mesh description
g City-1_mesh_0001

# Faces
f 1/1/1 2/2/1 3/3/1 4/4/1
f 5/2/1 6/5/1 7/6/1 8/3/1
f 9/5/1 10/7/1 11/8/1 12/6/1
f 13/7/1 14/9/1 15/10/1 16/8/1
f 17/9/1 18/11/1 19/12/1 20/10/1
f 21/11/1 22/13/1 23/14/1 24/12/1
f 25/1/1 26/2/1 27/3/1 28/4/1
f 29/13/1 30/15/1 31/16/1 32/14/1
f 33/13/1 34/15/1 35/16/1 36/14/1
f 37/7/1 38/9/1 39/10/1 40/8/1
f 41/9/1 42/11/1 43/12/1 44/10/1
f 45/11/1 46/13/1 47/14/1 48/12/1
f 49/5/1 50/7/1 51/8/1 52/6/1
f 53/7/1 54/9/1 55/10/1 56/8/1
f 57/9/1 58/11/1 59/12/1 60/10/1
f 61/11/1 62/13/1 63/14/1 64/12/1
f 65/17/1 66/18/1 67/2/1 68/1/1
f 69/19/1 70/20/1 71/21/1 72/22/1
f 73/19/1 74/20/1 75/21/1 76/22/1
f 77/19/1 78/20/1 79/21/1 80/22/1
f 81/23/1 82/24/1 83/11/1 84/9/1
f 85/23/1 86/24/1 87/11/1 88/9/1
f 89/24/1 90/25/1 91/13/1 92/11/1
f 93/26/1 94/27/1 95/28/1 96/25/1
f 97/26/1 98/27/1 99/28/1 100/25/1
f 101/23/1 102/24/1 103/11/1 104/9/1
f 105/23/1 106/24/1 107/11/1 108/9/1
f 109/24/1 110/25/1 111/13/1 112/11/1
f 113/19/1 114/20/1 115/21/1 116/22/1
f 117/19/1 118/20/1 119/21/1 120/22/1
f 121/19/1 122/20/1 123/21/1 124/22/1
f 125/29/1 126/30/1 127/31/1 128/32/1
f 129/33/1 130/34/1 131/18/1 132/17/1
f 133/19/1 134/20/1 135/21/1 136/22/1
f 137/19/1 138/20/1 139/21/1 140/22/1
f 141/35/1 142/36/1 143/20/1 144/19/1
f 145/26/1 146/27/1 147/28/1 148/25/1
f 149/26/1 150/27/1 151/28/1 152/25/1
f 153/26/1 154/27/1 155/28/1 156/25/1
f 157/26/1 158/27/1 159/28/1 160/25/1
f 161/26/1 162/27/1 163/28/1 164/25/1
f 165/26/1 166/27/1 167/28/1 168/25/1
f 169/26/1 170/27/1 171/28/1 172/25/1
f 173/26/1 174/27/1 175/28/1 176/25/1
f 177/35/1 178/36/1 179/20/1 180/19/1
f 181/19/1 182/20/1 183/21/1 184/22/1
f 185/19/1 186/20/1 187/21/1 188/22/1
f 189/37/1 190/38/1 191/30/1 192/29/1
f 193/39/1 194/40/1 195/34/1 196/33/1
f 197/19/1 198/20/1 199/21/1 200/22/1
f 201/35/1 202/36/1 203/20/1 204/19/1
f 205/41/1 206/42/1 207/43/1 208/44/1
f 209/41/1 210/42/1 211/43/1 212/44/1
f 213/41/1 214/42/1 215/43/1 216/44/1
f 217/41/1 218/42/1 219/43/1 220/44/1
f 221/41/1 222/42/1 223/43/1 224/44/1
f 225/41/1 226/42/1 227/43/1 228/44/1
f 229/41/1 230/42/1 231/43/1 232/44/1
f 233/41/1 234/42/1 235/43/1 236/44/1
f 237/41/1 238/42/1 239/43/1 240/44/1
f 241/41/1 242/42/1 243/43/1 244/44/1
f 245/35/1 246/36/1 247/20/1 248/19/1
f 249/19/1 250/20/1 251/21/1 252/22/1
f 253/29/1 254/30/1 255/31/1 256/32/1
f 257/45/1 258/46/1 259/40/1 260/39/1
f 261/35/1 262/36/1 263/20/1 264/19/1
f 265/41/1 266/42/1 267/43/1 268/44/1
f 269/47/1 270/48/1 271/49/1 272/50/1
f 273/48/1 274/51/1 275/23/1 276/49/1
f 277/51/1 278/52/1 279/24/1 280/23/1
f 281/53/1 282/54/1 283/27/1 284/26/1
f 285/41/1 286/42/1 287/43/1 288/44/1
f 289/41/1 290/42/1 291/43/1 292/44/1
f 293/26/1 294/27/1 295/28/1 296/25/1
f 297/27/1 298/55/1 299/56/1 300/28/1
f 301/55/1 302/57/1 303/58/1 304/56/1
f 305/57/1 306/35/1 307/19/1 308/58/1
f 309/41/1 310/42/1 311/43/1 312/44/1
f 313/35/1 314/36/1 315/20/1 316/19/1
f 317/37/1 318/38/1 319/30/1 320/29/1
f 321/59/1 322/60/1 323/46/1 324/45/1
f 325/41/1 326/42/1 327/43/1 328/44/1
f 329/40/1 330/61/1 331/47/1 332/34/1
f 333/61/1 334/62/1 335/48/1 336/47/1
f 337/62/1 338/63/1 339/51/1 340/48/1
f 341/63/1 342/64/1 343/52/1 344/51/1
f 345/41/1 346/42/1 347/43/1 348/44/1
f 349/41/1 350/42/1 351/43/1 352/44/1
f 353/41/1 354/42/1 355/43/1 356/44/1
f 357/53/1 358/54/1 359/27/1 360/26/1
f 361/54/1 362/65/1 363/55/1 364/27/1
f 365/65/1 366/66/1 367/57/1 368/55/1
f 369/66/1 370/67/1 371/35/1 372/57/1
f 373/41/1 374/42/1 375/43/1 376/44/1
f 377/41/1 378/42/1 379/43/1 380/44/1
f 381/29/1 382/30/1 383/31/1 384/32/1
f 385/68/1 386/69/1 387/60/1 388/59/1
f 389/41/1 390/42/1 391/43/1 392/44/1
f 393/53/1 394/54/1 395/27/1 396/26/1
f 397/70/1 398/71/1 399/62/1 400/61/1
f 401/71/1 402/72/1 403/63/1 404/62/1
f 405/72/1 406/73/1 407/64/1 408/63/1
f 409/53/1 410/54/1 411/27/1 412/26/1
f 413/41/1 414/42/1 415/43/1 416/44/1
f 417/41/1 418/42/1 419/43/1 420/44/1
f 421/74/1 422/75/1 423/54/1 424/53/1
f 425/75/1 426/76/1 427/65/1 428/54/1
f 429/76/1 430/77/1 431/66/1 432/65/1
f 433/77/1 434/78/1 435/67/1 436/66/1
f 437/41/1 438/42/1 439/43/1 440/44/1
f 441/41/1 442/42/1 443/43/1 444/44/1
f 445/37/1 446/38/1 447/30/1 448/29/1
f 449/79/1 450/80/1 451/69/1 452/68/1
f 453/41/1 454/42/1 455/43/1 456/44/1
f 457/41/1 458/42/1 459/43/1 460/44/1
f 461/41/1 462/42/1 463/43/1 464/44/1
f 465/41/1 466/42/1 467/43/1 468/44/1
f 469/41/1 470/42/1 471/43/1 472/44/1
f 473/41/1 474/42/1 475/43/1 476/44/1
f 477/41/1 478/42/1 479/43/1 480/44/1
f 481/41/1 482/42/1 483/43/1 484/44/1
f 485/41/1 486/42/1 487/43/1 488/44/1
f 489/41/1 490/42/1 491/43/1 492/44/1
f 493/41/1 494/42/1 495/43/1 496/44/1
f 497/41/1 498/42/1 499/43/1 500/44/1
f 501/41/1 502/42/1 503/43/1 504/44/1
f 505/41/1 506/42/1 507/43/1 508/44/1
f 509/81/1 510/82/1 511/38/1 512/37/1
f 513/59/1 514/60/1 515/46/1 516/45/1
f 517/41/1 518/42/1 519/43/1 520/44/1
f 521/41/1 522/42/1 523/43/1 524/44/1
f 525/41/1 526/42/1 527/43/1 528/44/1
f 529/41/1 530/42/1 531/43/1 532/44/1
f 533/41/1 534/42/1 535/43/1 536/44/1
f 537/26/1 538/27/1 539/28/1 540/25/1
f 541/41/1 542/42/1 543/43/1 544/44/1
f 545/41/1 546/42/1 547/43/1 548/44/1
f 549/41/1 550/42/1 551/43/1 552/44/1
f 553/41/1 554/42/1 555/43/1 556/44/1
f 557/41/1 558/42/1 559/43/1 560/44/1
f 561/41/1 562/42/1 563/43/1 564/44/1
f 565/41/1 566/42/1 567/43/1 568/44/1
f 569/41/1 570/42/1 571/43/1 572/44/1
f 573/83/1 574/84/1 575/82/1 576/81/1
f 577/68/1 578/69/1 579/60/1 580/59/1
f 581/41/1 582/42/1 583/43/1 584/44/1
f 585/41/1 586/42/1 587/43/1 588/44/1
f 589/41/1 590/42/1 591/43/1 592/44/1
f 593/41/1 594/42/1 595/43/1 596/44/1
f 597/41/1 598/42/1 599/43/1 600/44/1
f 601/85/1 602/86/1 603/87/1 604/88/1
f 605/86/1 606/89/1 607/90/1 608/87/1
f 609/89/1 610/91/1 611/92/1 612/90/1
f 613/91/1 614/93/1 615/94/1 616/92/1
f 617/41/1 618/42/1 619/43/1 620/44/1
f 621/41/1 622/42/1 623/43/1 624/44/1
f 625/41/1 626/42/1 627/43/1 628/44/1
f 629/41/1 630/42/1 631/43/1 632/44/1
f 633/41/1 634/42/1 635/43/1 636/44/1
f 637/29/1 638/30/1 639/31/1 640/32/1
f 641/79/1 642/80/1 643/69/1 644/68/1
f 645/41/1 646/42/1 647/43/1 648/44/1
f 649/41/1 650/42/1 651/43/1 652/44/1
f 653/41/1 654/42/1 655/43/1 656/44/1
f 657/41/1 658/42/1 659/43/1 660/44/1
f 661/41/1 662/42/1 663/43/1 664/44/1
f 665/95/1 666/96/1 667/86/1 668/85/1
f 669/96/1 670/97/1 671/89/1 672/86/1
f 673/97/1 674/98/1 675/91/1 676/89/1
f 677/98/1 678/99/1 679/93/1 680/91/1
f 681/41/1 682/42/1 683/43/1 684/44/1
f 685/41/1 686/42/1 687/43/1 688/44/1
f 689/41/1 690/42/1 691/43/1 692/44/1
f 693/41/1 694/42/1 695/43/1 696/44/1
f 697/41/1 698/42/1 699/43/1 700/44/1
f 701/37/1 702/38/1 703/30/1 704/29/1
f 705/100/1 706/101/1 707/80/1 708/79/1
f 709/102/1 710/81/1 711/37/1 712/103/1
f 713/41/1 714/42/1 715/43/1 716/44/1
f 717/41/1 718/42/1 719/43/1 720/44/1
f 721/41/1 722/42/1 723/43/1 724/44/1
f 725/41/1 726/42/1 727/43/1 728/44/1
f 729/104/1 730/105/1 731/96/1 732/95/1
f 733/105/1 734/106/1 735/97/1 736/96/1
f 737/106/1 738/107/1 739/98/1 740/97/1
f 741/107/1 742/108/1 743/99/1 744/98/1
f 745/41/1 746/42/1 747/43/1 748/44/1
f 749/41/1 750/42/1 751/43/1 752/44/1
f 753/41/1 754/42/1 755/43/1 756/44/1
f 757/41/1 758/42/1 759/43/1 760/44/1
f 761/102/1 762/81/1 763/37/1 764/103/1
f 765/81/1 766/82/1 767/38/1 768/37/1
f 769/59/1 770/60/1 771/46/1 772/45/1
f 773/109/1 774/83/1 775/81/1 776/102/1
f 777/102/1 778/81/1 779/37/1 780/103/1
f 781/41/1 782/42/1 783/43/1 784/44/1
f 785/41/1 786/42/1 787/43/1 788/44/1
f 789/41/1 790/42/1 791/43/1 792/44/1
f 793/41/1 794/42/1 795/43/1 796/44/1
f 797/41/1 798/42/1 799/43/1 800/44/1
f 801/110/1 802/111/1 803/107/1 804/106/1
f 805/111/1 806/112/1 807/108/1 808/107/1
f 809/41/1 810/42/1 811/43/1 812/44/1
f 813/41/1 814/42/1 815/43/1 816/44/1
f 817/41/1 818/42/1 819/43/1 820/44/1
f 821/102/1 822/81/1 823/37/1 824/103/1
f 825/109/1 826/83/1 827/81/1 828/102/1
f 829/83/1 830/84/1 831/82/1 832/81/1
f 833/113/1 834/114/1 835/101/1 836/100/1
f 837/109/1 838/83/1 839/81/1 840/102/1
f 841/109/1 842/83/1 843/81/1 844/102/1
f 845/102/1 846/81/1 847/37/1 848/103/1
f 849/41/1 850/42/1 851/43/1 852/44/1
f 853/41/1 854/42/1 855/43/1 856/44/1
f 857/41/1 858/42/1 859/43/1 860/44/1
f 861/41/1 862/42/1 863/43/1 864/44/1
f 865/41/1 866/42/1 867/43/1 868/44/1
f 869/41/1 870/42/1 871/43/1 872/44/1
f 873/41/1 874/42/1 875/43/1 876/44/1
f 877/41/1 878/42/1 879/43/1 880/44/1
f 881/102/1 882/81/1 883/37/1 884/103/1
f 885/109/1 886/83/1 887/81/1 888/102/1
f 889/109/1 890/83/1 891/81/1 892/102/1
f 893/81/1 894/82/1 895/38/1 896/37/1
f 897/115/1 898/116/1 899/114/1 900/113/1
f 901/116/1 902/117/1 903/118/1 904/114/1
f 905/109/1 906/83/1 907/81/1 908/102/1
f 909/109/1 910/83/1 911/81/1 912/102/1
f 913/119/1 914/120/1 915/111/1 916/110/1
f 917/120/1 918/121/1 919/112/1 920/111/1
f 921/121/1 922/122/1 923/123/1 924/112/1
f 925/122/1 926/124/1 927/125/1 928/123/1
f 929/117/1 930/126/1 931/127/1 932/118/1
f 933/126/1 934/119/1 935/110/1 936/127/1
f 937/119/1 938/120/1 939/111/1 940/110/1
f 941/117/1 942/126/1 943/127/1 944/118/1
f 945/109/1 946/83/1 947/81/1 948/102/1
f 949/109/1 950/83/1 951/81/1 952/102/1
f 953/128/1 954/129/1 955/83/1 956/109/1
f 957/83/1 958/84/1 959/82/1 960/81/1
f 961/130/1 962/131/1 963/116/1 964/115/1
f 965/131/1 966/132/1 967/117/1 968/116/1
f 969/132/1 970/133/1 971/126/1 972/117/1
f 973/133/1 974/134/1 975/119/1 976/126/1
f 977/130/1 978/131/1 979/116/1 980/115/1
f 981/131/1 982/132/1 983/117/1 984/116/1
f 985/132/1 986/133/1 987/126/1 988/117/1
f 989/133/1 990/134/1 991/119/1 992/126/1
f 993/134/1 994/135/1 995/120/1 996/119/1
f 997/135/1 998/136/1 999/121/1 1000/120/1
f 1001/136/1 1002/137/1 1003/122/1 1004/121/1
f 1005/137/1 1006/138/1 1007/124/1 1008/122/1
f 1009/138/1 1010/139/1 1011/140/1 1012/124/1
f 1013/139/1 1014/141/1 1015/128/1 1016/140/1
f 1017/141/1 1018/142/1 1019/129/1 1020/128/1
f 1021/142/1 1022/143/1 1023/144/1 1024/129/1

