# Tiled2Unity generated file. Do not modify by hand.
# Wavefront file for 'Rival-house-1_mesh_0001.obj'

# Vertices (Count = 144)
v 0 -1 0
v -1 -1 0
v -1 0 0
v 0 0 0
v -1 -1 0
v -2 -1 0
v -2 0 0
v -1 0 0
v -2 -1 0
v -3 -1 0
v -3 0 0
v -2 0 0
v -3 -1 0
v -4 -1 0
v -4 0 0
v -3 0 0
v -4 -1 0
v -5 -1 0
v -5 0 0
v -4 0 0
v -5 -1 0
v -6 -1 0
v -6 0 0
v -5 0 0
v 0 -2 0
v -1 -2 0
v -1 -1 0
v 0 -1 0
v -1 -2 0
v -2 -2 0
v -2 -1 0
v -1 -1 0
v -2 -2 0
v -3 -2 0
v -3 -1 0
v -2 -1 0
v -3 -2 0
v -4 -2 0
v -4 -1 0
v -3 -1 0
v -4 -2 0
v -5 -2 0
v -5 -1 0
v -4 -1 0
v -5 -2 0
v -6 -2 0
v -6 -1 0
v -5 -1 0
v 0 -3 0
v -1 -3 0
v -1 -2 0
v 0 -2 0
v -1 -3 0
v -2 -3 0
v -2 -2 0
v -1 -2 0
v -2 -3 0
v -3 -3 0
v -3 -2 0
v -2 -2 0
v -3 -3 0
v -4 -3 0
v -4 -2 0
v -3 -2 0
v -4 -3 0
v -5 -3 0
v -5 -2 0
v -4 -2 0
v -5 -3 0
v -6 -3 0
v -6 -2 0
v -5 -2 0
v 0 -4 0
v -1 -4 0
v -1 -3 0
v 0 -3 0
v -1 -4 0
v -2 -4 0
v -2 -3 0
v -1 -3 0
v -2 -4 0
v -3 -4 0
v -3 -3 0
v -2 -3 0
v -3 -4 0
v -4 -4 0
v -4 -3 0
v -3 -3 0
v -4 -4 0
v -5 -4 0
v -5 -3 0
v -4 -3 0
v -5 -4 0
v -6 -4 0
v -6 -3 0
v -5 -3 0
v 0 -5 0
v -1 -5 0
v -1 -4 0
v 0 -4 0
v -1 -5 0
v -2 -5 0
v -2 -4 0
v -1 -4 0
v -2 -5 0
v -3 -5 0
v -3 -4 0
v -2 -4 0
v -3 -5 0
v -4 -5 0
v -4 -4 0
v -3 -4 0
v -4 -5 0
v -5 -5 0
v -5 -4 0
v -4 -4 0
v -5 -5 0
v -6 -5 0
v -6 -4 0
v -5 -4 0
v 0 -6 0
v -1 -6 0
v -1 -5 0
v 0 -5 0
v -1 -6 0
v -2 -6 0
v -2 -5 0
v -1 -5 0
v -2 -6 0
v -3 -6 0
v -3 -5 0
v -2 -5 0
v -3 -6 0
v -4 -6 0
v -4 -5 0
v -3 -5 0
v -4 -6 0
v -5 -6 0
v -5 -5 0
v -4 -5 0
v -5 -6 0
v -6 -6 0
v -6 -5 0
v -5 -5 0

# Texture cooridinates (Count = 49)
vt 0.06743941 0.2866242
vt 0.1011591 0.2866242
vt 0.1011591 0.3375796
vt 0.06743941 0.3375796
vt 0.1348788 0.2866242
vt 0.1348788 0.3375796
vt 0.1685985 0.2866242
vt 0.1685985 0.3375796
vt 0.2023182 0.2866242
vt 0.2023182 0.3375796
vt 0.2360379 0.2866242
vt 0.2360379 0.3375796
vt 0.2697576 0.2866242
vt 0.2697576 0.3375796
vt 0.06743941 0.2356688
vt 0.1011591 0.2356688
vt 0.1348788 0.2356688
vt 0.1685985 0.2356688
vt 0.2023182 0.2356688
vt 0.2360379 0.2356688
vt 0.2697576 0.2356688
vt 0.06743941 0.1847134
vt 0.1011591 0.1847134
vt 0.1348788 0.1847134
vt 0.1685985 0.1847134
vt 0.2023182 0.1847134
vt 0.2360379 0.1847134
vt 0.2697576 0.1847134
vt 0.06743941 0.1337579
vt 0.1011591 0.1337579
vt 0.1348788 0.1337579
vt 0.1685985 0.1337579
vt 0.2023182 0.1337579
vt 0.2360379 0.1337579
vt 0.2697576 0.1337579
vt 0.06743941 0.08280253
vt 0.1011591 0.08280253
vt 0.1348788 0.08280253
vt 0.1685985 0.08280253
vt 0.2023182 0.08280253
vt 0.2360379 0.08280253
vt 0.2697576 0.08280253
vt 0.06743941 0.03184712
vt 0.1011591 0.03184712
vt 0.1348788 0.03184712
vt 0.1685985 0.03184712
vt 0.2023182 0.03184712
vt 0.2360379 0.03184712
vt 0.2697576 0.03184712

# Normal
vn 0 0 -1

# Mesh description
g Rival-house-1_mesh_0001

# Faces
f 1/1/1 2/2/1 3/3/1 4/4/1
f 5/2/1 6/5/1 7/6/1 8/3/1
f 9/5/1 10/7/1 11/8/1 12/6/1
f 13/7/1 14/9/1 15/10/1 16/8/1
f 17/9/1 18/11/1 19/12/1 20/10/1
f 21/11/1 22/13/1 23/14/1 24/12/1
f 25/15/1 26/16/1 27/2/1 28/1/1
f 29/16/1 30/17/1 31/5/1 32/2/1
f 33/17/1 34/18/1 35/7/1 36/5/1
f 37/18/1 38/19/1 39/9/1 40/7/1
f 41/19/1 42/20/1 43/11/1 44/9/1
f 45/20/1 46/21/1 47/13/1 48/11/1
f 49/22/1 50/23/1 51/16/1 52/15/1
f 53/23/1 54/24/1 55/17/1 56/16/1
f 57/24/1 58/25/1 59/18/1 60/17/1
f 61/25/1 62/26/1 63/19/1 64/18/1
f 65/26/1 66/27/1 67/20/1 68/19/1
f 69/27/1 70/28/1 71/21/1 72/20/1
f 73/29/1 74/30/1 75/23/1 76/22/1
f 77/30/1 78/31/1 79/24/1 80/23/1
f 81/31/1 82/32/1 83/25/1 84/24/1
f 85/32/1 86/33/1 87/26/1 88/25/1
f 89/33/1 90/34/1 91/27/1 92/26/1
f 93/34/1 94/35/1 95/28/1 96/27/1
f 97/36/1 98/37/1 99/30/1 100/29/1
f 101/37/1 102/38/1 103/31/1 104/30/1
f 105/38/1 106/39/1 107/32/1 108/31/1
f 109/39/1 110/40/1 111/33/1 112/32/1
f 113/40/1 114/41/1 115/34/1 116/33/1
f 117/41/1 118/42/1 119/35/1 120/34/1
f 121/43/1 122/44/1 123/37/1 124/36/1
f 125/44/1 126/45/1 127/38/1 128/37/1
f 129/45/1 130/46/1 131/39/1 132/38/1
f 133/46/1 134/47/1 135/40/1 136/39/1
f 137/47/1 138/48/1 139/41/1 140/40/1
f 141/48/1 142/49/1 143/42/1 144/41/1

